<svg xmlns="http://www.w3.org/2000/svg" viewBox="0 0 200 56" fill="none">
  <!-- DINAS CONSULTING — Primary Logo (light background) -->
  <!-- Vertical rays elongated (2.4:1) for upward momentum -->
  <!-- Text converted to paths for consistent rendering -->
  <!-- Safe zone: minimum 1x width of "D" character around all edges -->

  <g transform="translate(22, 28)">
    <!-- Horizontal diamond (E-W) — 1.8:1 -->
    <path d="M -14,0 L 0,-7.5 L 14,0 L 0,7.5 Z" fill="#1a2e5a"/>
    <!-- Vertical diamond (N-S) — 2.4:1 elongated -->
    <path d="M 0,-18 L 7.5,0 L 0,18 L -7.5,0 Z" fill="#1a2e5a"/>
    <!-- Gold center dot -->
    <circle cx="0" cy="0" r="3" fill="#d4a943"/>
  </g>

  <!-- DINAS text (outlined from Bodoni 72) -->
  <g>
    <path d="M674 346Q674 170 551 72Q461 0 310 0Q306 0 274.5 1.0Q243 2 183 2H133L54 1Q47 0 39 0Q20 0 20 10Q20 19 52 19Q93 19 103 34Q107 41 107 72V611Q107 660 99.5 668.0Q92 676 48 676Q25 676 25 687Q25 695 42 695Q41 695 64.0 694.0Q87 693 109 693H216Q396 693 471 668Q562 638 618.0 549.5Q674 461 674 346ZM562 350Q562 516 497.0 593.5Q432 671 294 671Q227 671 213 657Q207 650 207 609V77Q207 49 208.5 43.0Q210 37 217 33Q241 21 318 21Q426 21 492 97Q562 177 562 350Z" fill="#1a2e5a" transform="translate(44.00,36.00) scale(0.024000,-0.024000)"/>
    <path d="M288 8Q288 0 276 0H266Q260 3 130 3Q105 3 80 1Q67 0 40 0Q27 0 27 9Q27 17 53 18Q93 19 100.0 27.5Q107 36 107 85V611Q107 660 102 666Q96 676 47 678Q28 679 28 686Q28 695 40 695L175 693Q190 693 233 694L271 695Q287 695 287 686Q287 678 243 676Q218 675 212.5 667.0Q207 659 207 625V91Q207 34 212 29Q223 18 277 16Q288 16 288 8Z" fill="#1a2e5a" transform="translate(64.06,36.00) scale(0.024000,-0.024000)"/>
    <path d="M642 685Q642 675 617 676L595 677H577Q561 677 558.0 671.5Q555 666 555 638V62Q555 9 554.0 0.0Q553 -9 548 -9Q542 -9 534 2L406 189Q295 352 136 596L137 38Q138 25 152.0 21.5Q166 18 219 17Q232 17 232 9Q232 -1 206 -1Q197 -1 149 2Q133 3 118 3Q119 3 100.5 1.0Q82 -1 44 -1H34Q11 -1 11 8Q11 17 31 17Q90 18 99.5 24.5Q109 31 109 67V560Q109 643 75 664Q59 674 18 674Q-8 674 -8 684Q-8 693 7 693Q27 693 58.0 692.0Q89 691 91 691Q94 691 119 692Q152 692 183 693L528 180V625Q528 656 527.0 662.5Q526 669 519.0 672.5Q512 676 471 676Q435 676 435 685Q435 695 459 695H494Q507 695 522 695Q538 694 541 694Q542 694 559 695Q575 695 589 695H620Q642 695 642 685Z" fill="#1a2e5a" transform="translate(74.48,36.00) scale(0.024000,-0.024000)"/>
    <path d="M647 7Q647 -2 632 -2Q622 -2 614 -1L487 1L360 -1Q353 -2 345 -2Q325 -2 325 8Q325 19 352 19Q440 20 440 37Q440 38 438 45L430 72L425 86Q416 117 381 223H167Q107 63 107 39Q107 25 119 22Q122 21 169 18Q198 17 198 8Q198 -2 172 -2Q126 -2 65 2Q50 3 34 3Q18 3 3 1Q-5 0 -10 0Q-24 0 -24 9Q-24 18 7.5 19.0Q39 20 53.0 28.5Q67 37 75 61Q204 429 285 652Q287 664 293 679L298 697Q301 708 306 708Q309 708 311 702Q324 663 370 539Q406 442 549 52Q557 30 569.5 24.0Q582 18 621 17Q647 16 647 7ZM375 246Q359 291 322 395L274 532Q232 422 173 246Z" fill="#1a2e5a" transform="translate(93.10,36.00) scale(0.024000,-0.024000)"/>
    <path d="M469 195Q469 109 403.5 48.5Q338 -12 246 -12Q192 -12 117 21Q97 30 87 30Q75 30 72 1Q71 -14 59 -14Q49 -14 49 -2Q49 6 50 10Q58 71 58 123Q58 133 56 179Q55 185 55 195Q55 210 67 210Q77 210 81 186Q107 8 250 8Q311 8 344.5 42.5Q378 77 378 140Q378 196 345.5 235.5Q313 275 234 314Q139 361 102.0 405.0Q65 449 65 514Q65 597 118.5 651.0Q172 705 254 705Q288 705 348 682Q369 674 379 674Q390 674 393.5 678.0Q397 682 400 699Q402 709 411 709Q421 709 421 697Q421 689 420 685Q417 661 417 627Q417 579 422 551L423 535Q424 524 414 524Q403 524 399 547Q388 606 347.0 645.5Q306 685 255 685Q205 685 175.5 653.0Q146 621 146 566Q146 502 189 463Q213 441 293 401Q387 354 428.0 305.5Q469 257 469 195Z" fill="#1a2e5a" transform="translate(110.43,36.00) scale(0.024000,-0.024000)"/>
  </g>
</svg>
